inDegrees=no
num_controls=7
num_derivatives=13
num_iterations=64
num_multipliers=7
num_parameters=0
num_slacks=7
num_states=26
objective=0.470773
objective_accelerations=0.057172
objective_balance=0.000654
objective_effort=0.015311
objective_height=0.388687
objective_ligament=0.008948
solver_duration=869.606243
status=Solve_Succeeded
success=true
DataType=double
version=3
OpenSimVersion=4.5
endheader
time	/jointset/ground_pelvis/pelvis_tilt/value	/jointset/ground_pelvis/pelvis_tx/value	/jointset/ground_pelvis/pelvis_ty/value	/jointset/hip_l/hip_flexion_l/value	/jointset/hip_l/hip_adduction_l/value	/jointset/hip_l/hip_rotation_l/value	/jointset/back/lumbar_extension/value	/jointset/patellofemoral_l/patellar_flexion_l/value	/jointset/knee_l/knee_flexion_l/value	/jointset/knee_l/knee_adduction_l/value	/jointset/knee_l/knee_rotation_l/value	/jointset/ankle_l/ankle_angle_l/value	/jointset/subtalar_l/subtalar_angle_l/value	/jointset/ground_pelvis/pelvis_tilt/speed	/jointset/ground_pelvis/pelvis_tx/speed	/jointset/ground_pelvis/pelvis_ty/speed	/jointset/hip_l/hip_flexion_l/speed	/jointset/hip_l/hip_adduction_l/speed	/jointset/hip_l/hip_rotation_l/speed	/jointset/back/lumbar_extension/speed	/jointset/patellofemoral_l/patellar_flexion_l/speed	/jointset/knee_l/knee_flexion_l/speed	/jointset/knee_l/knee_adduction_l/speed	/jointset/knee_l/knee_rotation_l/speed	/jointset/ankle_l/ankle_angle_l/speed	/jointset/subtalar_l/subtalar_angle_l/speed	/forceset/tau_hip_flexion_l	/forceset/tau_hip_adduction_l	/forceset/tau_hip_rotation_l	/forceset/tau_knee_flexion_l	/forceset/tau_ankle_angle_l	/forceset/tau_subtalar_angle_l	/forceset/tau_lumbar_extension	lambda_cid13_p0	lambda_cid13_p1	lambda_cid13_p2	lambda_cid13_p3	lambda_cid13_p4	lambda_cid13_p5	lambda_cid14_p0	/jointset/ground_pelvis/pelvis_tilt/accel	/jointset/ground_pelvis/pelvis_tx/accel	/jointset/ground_pelvis/pelvis_ty/accel	/jointset/hip_l/hip_flexion_l/accel	/jointset/hip_l/hip_adduction_l/accel	/jointset/hip_l/hip_rotation_l/accel	/jointset/back/lumbar_extension/accel	/jointset/patellofemoral_l/patellar_flexion_l/accel	/jointset/knee_l/knee_flexion_l/accel	/jointset/knee_l/knee_adduction_l/accel	/jointset/knee_l/knee_rotation_l/accel	/jointset/ankle_l/ankle_angle_l/accel	/jointset/subtalar_l/subtalar_angle_l/accel	gamma_cid13_p0	gamma_cid13_p1	gamma_cid13_p2	gamma_cid13_p3	gamma_cid13_p4	gamma_cid13_p5	gamma_cid14_p0
0	0.05414409353760188	0.1048744937282422	0.9048025082947782	0.1266922784136757	-0.3534142489362097	-0.2368961108300467	-0.2144969558742783	0.2051545070142182	0.2051545070141877	-0.1401471538992131	-0.1637024616327312	0.09024313228550125	0.09723749718119259	0	0	0	0	0	0	0	0	0	0	0	0	0	0.1117575142775506	-0.02994628746180455	-0.008291700835196977	-0.2407257912988547	0.1809254223514088	-0.09107327363734356	-0.04526308186373613	26.39099668771493	36.53488329641081	-7.936262136192871	-16.1066356850697	-441.5688763964957	-36.62262002149705	-26.11333165649476	-3.087594444139657	-1.067819539337787	-0.7760589401155448	10.50698681424753	-0.03231996303579587	2.757482429759643	-3.560795791737393	9.546486981161449	9.546486981159498	2.409765675165934	-0.6772061330617462	3.052432386789584	0.894417116500787	1.531791497759704e-08	4.816854758606044e-07	-3.378533282850669e-07	5.807362472986026e-08	-2.77599177314005e-08	4.031102525842736e-07	9.308552540945382e-08
0.01	0.05399936304537812	0.1048226291146071	0.9047646736118693	0.1272007809770913	-0.3534168838471697	-0.2367522525622811	-0.2146776774969045	0.2056242993194401	0.2056242993194658	-0.14003114504103	-0.1637282838016684	0.09039521148727309	0.09728086245018214	-0.02857329853125897	-0.01024465144482961	-0.007565826125489895	0.1010448763056767	-0.0007488665170201	0.02883720204815197	-0.03579539748652028	0.09390058327878353	0.09390058327877265	0.0227248801797549	-0.005161420431122407	0.03054414300519727	0.008472320573781809	0.1073021452436969	-0.03914509716453612	-0.007514413093900165	-0.2356156228113277	0.1726707197232319	-0.08062188135598811	-0.0416899586262297	24.46481749401077	32.03076290215184	-6.872835603544144	-15.90018633374625	-441.0709395174645	-45.35157660739185	-26.11329306873997	-2.686271717658919	-0.9835356419538936	-0.7466834322235836	9.804897105560061	-0.1294678645338456	2.95673719405327	-3.536572669790927	9.303143717999843	9.303143717999355	2.132357775307575	-0.4352245193688365	3.074662717352232	0.7934942013619296	-4.573810891457173e-09	6.089914310121859e-07	-1.917736600243657e-07	7.138821926218829e-08	-1.357443154612423e-07	3.040588530269619e-07	9.188693270634502e-08
0.02	0.05358008473580032	0.1046721684475416	0.9046512128710136	0.1287000641168847	-0.3534336669970006	-0.2363180426536992	-0.2152058852829455	0.2070313574009116	0.2070313574009031	-0.1397021856639547	-0.1638056430789833	0.0908565836110705	0.09740292185961856	-0.05490956346405056	-0.01971921068608281	-0.01512521158934005	0.1981561152845899	-0.002829647774030354	0.05807032816471956	-0.06949723268020222	0.187453155228095	0.1874531552280839	0.04259010379660254	-0.01030742171152627	0.06185858440908652	0.01573882808936156	0.1028467762097127	-0.04834390686711242	-0.006737125353747998	-0.2305054543235822	0.1644160170951758	-0.07017048907441056	-0.03811683538895863	22.58273215114384	27.53244838529054	-5.825786476547398	-15.73370781392437	-439.7743952273484	-53.89140590158942	-26.11318884226462	-2.640187724445407	-0.9138010986232041	-0.7747708077875682	9.720259348894931	-0.2987029110338663	2.836667243442765	-3.142083333169264	9.476884715267159	9.476884715267337	1.83783436258439	-0.6741223029181798	3.206492066527174	0.6532545048600745	-2.446553676051139e-08	7.362973861637674e-07	-4.569399176366458e-08	8.470281379451632e-08	-2.43728713191084e-07	2.050074534696501e-07	9.068834000323622e-08
0.03	0.05290449495405599	0.1044294085630015	0.9044622506066616	0.1311546524644044	-0.3534746751946024	-0.2355929567664186	-0.2160616983730026	0.2093669670426545	0.209366967042652	-0.1391838144696338	-0.1639343868309561	0.09163065989668008	0.09759386152702533	-0.08021932589717613	-0.02884400075674582	-0.02265485081356814	0.2924492518672686	-0.005264663308983837	0.08676618808346852	-0.1014524436174471	0.2790594863102652	0.2790594863102587	0.06111100541186552	-0.01533491933064981	0.09265305803661009	0.02247587971285303	0.1003007585381192	-0.04348836185413776	-0.006231380664705367	-0.2272534950982928	0.1596478428360877	-0.07207396451738059	-0.03621374919217673	20.88189141821615	28.53535281732627	-5.84680287187922	-14.22588069910869	-440.2955326229939	-51.26618366098275	-26.11292548417304	-2.478007764240785	-0.9134861490145783	-0.7402510915814949	9.236993499578942	-0.1999031506032022	2.858976258242183	-3.190298715671047	8.911096150755434	8.911096150756018	1.863368052897069	-0.4011261961021595	2.970403929516645	0.6878360850566029	-2.758754265299353e-08	8.429203718418515e-07	-1.23197762347135e-07	1.082041775130946e-07	-3.588855063651622e-07	2.825781994724707e-07	1.163610257386923e-07
0.04	0.05197548009565462	0.1040950671402077	0.9041983538276986	0.1345428027150585	-0.3535368340027109	-0.2345863261015049	-0.2172306753207679	0.2126003577644256	0.2126003577644171	-0.1384794042606904	-0.1641102181000662	0.09270357670230288	0.09785295282945967	-0.1055945787899525	-0.03803551833684387	-0.03011211451153341	0.3848684959149418	-0.007059769879006643	0.1143792836882528	-0.1321300042213537	0.3670093712349715	0.3670093712349682	0.07979790670309697	-0.01972492513749649	0.1216266884101888	0.02936915509484779	0.09775474086645788	-0.03863281684127189	-0.005725635975614506	-0.2240015358731492	0.1548796685769103	-0.07397743996049681	-0.03431066299533907	19.22211267806437	29.54647053682409	-5.886723715124365	-12.75859000817576	-440.0678412925163	-48.45831068129847	-26.11165580319286	-2.65328581637482	-0.9271466005108778	-0.7602957025349799	9.345480841893943	-0.1707211180477711	2.620114380649822	-2.886553266501182	8.74559548377449	8.745595483774402	1.871034297777999	-0.5466239404629644	2.842323415737432	0.6844992565604461	-3.036378112327832e-08	9.491169045411008e-07	-2.053115007418256e-07	1.319155777097399e-07	-4.741901839813896e-07	3.637906391981806e-07	1.425877584522632e-07
0.05	0.05079360580346284	0.1036690824981089	0.9038598781176734	0.1388452246721731	-0.3536151738188874	-0.2333092089742579	-0.2186993997431317	0.2166982433915776	0.2166982433915811	-0.1375894291395525	-0.1643285333591946	0.09405926189393814	0.09818089829977431	-0.1306082992629739	-0.04710953371572428	-0.03759779852747432	0.4751375695416474	-0.008638354337998085	0.1409591485686053	-0.1614012193456803	0.4522002642284795	0.4522002642285082	0.09799293263891769	-0.02386579817765823	0.1493958492226486	0.03615705518750597	0.09425241779339136	-0.03710256582516103	-0.005058520534163212	-0.2206901580554335	0.1500641048633511	-0.07276514027575832	-0.03166804145962451	17.79663809053515	29.15736225753195	-5.696533134684582	-12.05603545807152	-439.3368473058138	-48.39693297404963	-26.10846539423246	-2.39960677932348	-0.8897209785617534	-0.7450161759405752	8.795874525792412	-0.1560538850214102	2.66423543775941	-2.915356498262336	8.35068398248648	8.350683982491248	1.763245756703345	-0.3370254852975789	2.727063627427804	0.6663786878458196	-3.42504871916612e-08	9.283805062736487e-07	-2.012923053479695e-07	1.352125058993429e-07	-5.354406168253334e-07	3.497793755735844e-07	1.422313596675267e-07
